<svg width="300" height="300" viewBox="0 0 300 300" fill="none" xmlns="http://www.w3.org/2000/svg">
  <path fill="#663399" d="M0 152.918C0 79.166 41.25 32.502 72.501 32.502c6.668 0 12.081 2.5 15.834 6.249C102.918 15.415 129.585 0 164.583 0 241.666 0 300 64.167 300 148.749s-64.999 151.248-151.667 151.248S0 237.497 0 152.918Zm148.333 67.916c48.333 0 84.998-37.5 84.998-85.836 0-30.416-13.748-56.664-31.248-56.664-8.75 0-15.002 6.667-15.002 15.415 0 17.916 11.668 21.25 11.668 39.998 0 18.749-17.082 32.916-39.583 32.916-42.084 0-80-35.002-83.331-77.083-6.252 14.583-9.166 29.581-9.166 47.917 0 45.834 30.832 83.334 81.664 83.334"/>
</svg>
